<svg width="20" height="27" viewBox="0 0 20 27" fill="#7E7E7E" xmlns="http://www.w3.org/2000/svg">
<path d="M19.2678 5.16486L14.8989 0.741393C14.4301 0.26669 13.7942 3.5104e-06 13.1311 0H2.5C1.11927 0 0 1.13326 0 2.53125V24.4688C0 25.8667 1.11927 27 2.5 27H17.5C18.8807 27 20 25.8667 20 24.4688V6.95472C20 6.28339 19.7366 5.63956 19.2678 5.16486ZM17.2978 6.75H13.3333V2.73596L17.2978 6.75ZM2.5 24.4688V2.53125H10.8333V8.01562C10.8333 8.71462 11.393 9.28125 12.0833 9.28125H17.5V24.4688H2.5ZM16.1016 14.3089L8.68969 21.7534C8.44464 21.9995 8.04891 21.9979 7.80578 21.7498L3.89479 17.7578C3.65172 17.5097 3.65328 17.109 3.89833 16.8628L5.08161 15.6744C5.32667 15.4283 5.7224 15.4299 5.96547 15.678L8.26255 18.0227L14.0476 12.2123C14.2926 11.9662 14.6883 11.9678 14.9315 12.2159L16.1052 13.4139C16.3483 13.6621 16.3467 14.0627 16.1016 14.3089Z" />
</svg>
