<svg width="32" height="32" viewBox="0 0 32 32" fill="none" xmlns="http://www.w3.org/2000/svg">
<rect x="0.5" y="0.5" width="31" height="31" rx="7.5" fill="#F8F9FA"/>
<path d="M22.6555 15.6546H17.2702V10.2693C17.2702 10.1205 17.1497 10 17.0009 10H15.9239C15.7751 10 15.6546 10.1205 15.6546 10.2693V15.6546H10.2693C10.1205 15.6546 10 15.7751 10 15.9239V17.0009C10 17.1497 10.1205 17.2702 10.2693 17.2702H15.6546V22.6555C15.6546 22.8043 15.7751 22.9248 15.9239 22.9248H17.0009C17.1497 22.9248 17.2702 22.8043 17.2702 22.6555V17.2702H22.6555C22.8043 17.2702 22.9248 17.1497 22.9248 17.0009V15.9239C22.9248 15.7751 22.8043 15.6546 22.6555 15.6546Z" fill="#DF4036"/>
<rect x="0.5" y="0.5" width="31" height="31" rx="7.5" stroke="#DF4036"/>
</svg>
