<svg width="20" height="27" viewBox="0 0 20 27" fill="#7E7E7E" xmlns="http://www.w3.org/2000/svg">
<path d="M15 13.0781V14.5547C15 14.9027 14.7188 15.1875 14.375 15.1875H5.625C5.28125 15.1875 5 14.9027 5 14.5547V13.0781C5 12.7301 5.28125 12.4453 5.625 12.4453H14.375C14.7188 12.4453 15 12.7301 15 13.0781ZM14.375 16.875H5.625C5.28125 16.875 5 17.1598 5 17.5078V18.9844C5 19.3324 5.28125 19.6172 5.625 19.6172H14.375C14.7188 19.6172 15 19.3324 15 18.9844V17.5078C15 17.1598 14.7188 16.875 14.375 16.875ZM20 6.95566V24.4688C20 25.8662 18.8802 27 17.5 27H2.5C1.11979 27 0 25.8662 0 24.4688V2.53125C0 1.13379 1.11979 0 2.5 0H13.1302C13.7917 0 14.4271 0.268945 14.8958 0.743555L19.2656 5.16797C19.7344 5.6373 20 6.28594 20 6.95566ZM13.3333 2.73691V6.75H17.2969L13.3333 2.73691ZM17.5 24.4688V9.28125H12.0833C11.3906 9.28125 10.8333 8.71699 10.8333 8.01562V2.53125H2.5V24.4688H17.5Z" />
</svg>
