<svg width="16" height="18" viewBox="0 0 16 18" fill="none" xmlns="http://www.w3.org/2000/svg">
<path d="M9.96286 14.5404H10.5014C10.5728 14.5404 10.6413 14.512 10.6918 14.4615C10.7423 14.411 10.7707 14.3425 10.7707 14.2711V5.11607C10.7707 5.04465 10.7423 4.97616 10.6918 4.92566C10.6413 4.87517 10.5728 4.8468 10.5014 4.8468H9.96286C9.89145 4.8468 9.82296 4.87517 9.77246 4.92566C9.72196 4.97616 9.6936 5.04465 9.6936 5.11607V14.2711C9.6936 14.3425 9.72196 14.411 9.77246 14.4615C9.82296 14.512 9.89145 14.5404 9.96286 14.5404ZM4.57753 14.5404H5.11606C5.18748 14.5404 5.25597 14.512 5.30646 14.4615C5.35696 14.411 5.38533 14.3425 5.38533 14.2711V5.11607C5.38533 5.04465 5.35696 4.97616 5.30646 4.92566C5.25597 4.87517 5.18748 4.8468 5.11606 4.8468H4.57753C4.50612 4.8468 4.43763 4.87517 4.38713 4.92566C4.33663 4.97616 4.30826 5.04465 4.30826 5.11607V14.2711C4.30826 14.3425 4.33663 14.411 4.38713 14.4615C4.43763 14.512 4.50612 14.5404 4.57753 14.5404ZM14.8097 2.15413H11.3092L10.1783 0.64624C10.0278 0.445589 9.83265 0.282731 9.60831 0.170563C9.38398 0.058396 9.13661 0 8.8858 0L6.19313 0C5.94232 0 5.69495 0.058396 5.47061 0.170563C5.24628 0.282731 5.05114 0.445589 4.90065 0.64624L3.76973 2.15413H0.269267C0.197853 2.15413 0.129364 2.1825 0.0788663 2.233C0.0283691 2.2835 0 2.35199 0 2.4234L0 2.96193C0 3.03335 0.0283691 3.10184 0.0788663 3.15233C0.129364 3.20283 0.197853 3.2312 0.269267 3.2312H1.07707V15.6175C1.07707 16.0459 1.24728 16.4569 1.55026 16.7599C1.85325 17.0628 2.26418 17.2331 2.69267 17.2331H12.3863C12.8147 17.2331 13.2257 17.0628 13.5287 16.7599C13.8316 16.4569 14.0019 16.0459 14.0019 15.6175V3.2312H14.8097C14.8811 3.2312 14.9496 3.20283 15.0001 3.15233C15.0506 3.10184 15.0789 3.03335 15.0789 2.96193V2.4234C15.0789 2.35199 15.0506 2.2835 15.0001 2.233C14.9496 2.1825 14.8811 2.15413 14.8097 2.15413ZM5.7623 1.29248C5.81265 1.22579 5.87773 1.17164 5.95247 1.13427C6.0272 1.0969 6.10957 1.07733 6.19313 1.07707H8.8858C8.96935 1.07733 9.05172 1.0969 9.12646 1.13427C9.2012 1.17164 9.26628 1.22579 9.31662 1.29248L9.96286 2.15413H5.11606L5.7623 1.29248ZM12.9248 15.6175C12.9248 15.7603 12.8681 15.8973 12.7671 15.9983C12.6661 16.0993 12.5291 16.156 12.3863 16.156H2.69267C2.54984 16.156 2.41286 16.0993 2.31187 15.9983C2.21087 15.8973 2.15413 15.7603 2.15413 15.6175V3.2312H12.9248V15.6175ZM7.2702 14.5404H7.80873C7.88014 14.5404 7.94863 14.512 7.99913 14.4615C8.04963 14.411 8.078 14.3425 8.078 14.2711V5.11607C8.078 5.04465 8.04963 4.97616 7.99913 4.92566C7.94863 4.87517 7.88014 4.8468 7.80873 4.8468H7.2702C7.19878 4.8468 7.13029 4.87517 7.0798 4.92566C7.0293 4.97616 7.00093 5.04465 7.00093 5.11607V14.2711C7.00093 14.3425 7.0293 14.411 7.0798 14.4615C7.13029 14.512 7.19878 14.5404 7.2702 14.5404Z" fill="#ACACAC"/>
</svg>
