<svg width="18" height="18" viewBox="0 0 18 18" fill="none" xmlns="http://www.w3.org/2000/svg">
<path d="M16.602 1.89362L15.3395 0.631094C14.9191 0.210365 14.3678 0 13.8164 0C13.2651 0 12.7138 0.210365 12.2931 0.630757L0.432543 12.4913L0.00508235 16.3357C-0.048771 16.8197 0.332578 17.2331 0.80615 17.2331C0.836106 17.2331 0.866062 17.2314 0.896691 17.228L4.73845 16.8036L16.6023 4.9397C17.4435 4.09857 17.4435 2.73474 16.602 1.89362ZM4.24401 15.775L1.11278 16.122L1.46148 12.9861L10.3436 4.10396L13.1295 6.88986L4.24401 15.775ZM15.8407 4.17834L13.8908 6.12817L11.1049 3.34227L13.0548 1.39244C13.258 1.18915 13.5287 1.07707 13.8164 1.07707C14.1042 1.07707 14.3745 1.18915 14.5781 1.39244L15.8407 2.65497C16.2604 3.07502 16.2604 3.75829 15.8407 4.17834Z" fill="#ACACAC"/>
</svg>
