<svg width="15" height="15" viewBox="0 0 15 15" fill="none" xmlns="http://www.w3.org/2000/svg">
<path d="M7.28943 1.23105C10.6166 1.23105 13.3479 3.92582 13.3479 7.28955C13.3479 10.6355 10.6381 13.348 7.28943 13.348C3.9448 13.348 1.23093 10.6396 1.23093 7.28955C1.23093 3.94607 3.94048 1.23105 7.28943 1.23105ZM7.28943 0.333496C3.44797 0.333496 0.333374 3.44922 0.333374 7.28955C0.333374 11.1321 3.44797 14.2456 7.28943 14.2456C11.1309 14.2456 14.2455 11.1321 14.2455 7.28955C14.2455 3.44922 11.1309 0.333496 7.28943 0.333496ZM6.27968 9.98221H6.61626V6.61638H6.27968C6.0938 6.61638 5.94309 6.46568 5.94309 6.2798V6.05541C5.94309 5.86953 6.0938 5.71883 6.27968 5.71883H7.62601C7.81189 5.71883 7.96259 5.86953 7.96259 6.05541V9.98221H8.29917C8.48505 9.98221 8.63576 10.1329 8.63576 10.3188V10.5432C8.63576 10.7291 8.48505 10.8798 8.29917 10.8798H6.27968C6.0938 10.8798 5.94309 10.7291 5.94309 10.5432V10.3188C5.94309 10.1329 6.0938 9.98221 6.27968 9.98221ZM7.28943 3.25055C6.79372 3.25055 6.39187 3.6524 6.39187 4.1481C6.39187 4.64381 6.79372 5.04566 7.28943 5.04566C7.78513 5.04566 8.18698 4.64381 8.18698 4.1481C8.18698 3.6524 7.78513 3.25055 7.28943 3.25055Z" fill="#7E7E7E"/>
</svg>
