<svg width="24" height="24" viewBox="0 0 24 24" fill="none" xmlns="http://www.w3.org/2000/svg">
<path d="M18.4502 6.29784L15.627 3.47458C15.324 3.17166 14.9134 3 14.4863 3H7.61526C6.72365 3.00337 6 3.72702 6 4.61863V18.6178C6 19.5094 6.72365 20.2331 7.61526 20.2331H17.3095C18.2011 20.2331 18.9248 19.5094 18.9248 18.6178V7.44189C18.9248 7.01476 18.7531 6.60077 18.4502 6.29784ZM14.6175 4.09692C14.7118 4.12049 14.7959 4.16761 14.8666 4.23829L17.6899 7.06155C17.7606 7.13223 17.8077 7.21638 17.8312 7.31062H14.6175V4.09692ZM17.8481 18.6178C17.8481 18.914 17.6057 19.1563 17.3095 19.1563H7.61526C7.31907 19.1563 7.07673 18.914 7.07673 18.6178V4.61863C7.07673 4.32244 7.31907 4.07707 7.61526 4.07707H13.5405V7.57989C13.5405 8.02754 13.9006 8.38533 14.3483 8.38533H17.8481V18.6178ZM13.0009 10.2702C13.0009 10.1214 12.8804 10.0009 12.7317 10.0009H12.1931C12.0444 10.0009 11.9239 10.1214 11.9239 10.2702V13.2328H10.1514C9.78117 13.2328 9.45839 13.4486 9.30996 13.7956C9.1585 14.1497 9.22985 14.5569 9.49306 14.8326L11.7859 17.2486C11.9656 17.4367 12.2056 17.5411 12.4621 17.5411C12.7185 17.5411 12.9585 17.4371 13.1383 17.2482L15.4311 14.8333C15.6939 14.5573 15.7656 14.1497 15.6142 13.7956C15.4657 13.4486 15.1429 13.2328 14.7727 13.2328H13.0009V10.2702ZM14.4429 14.3099L12.4624 16.3967L10.4819 14.3099H14.4429Z" fill="#ACACAC"/>
</svg>
