<?xml version="1.0" standalone="no"?>
<!DOCTYPE svg PUBLIC "-//W3C//DTD SVG 20010904//EN"
 "http://www.w3.org/TR/2001/REC-SVG-20010904/DTD/svg10.dtd">
<svg version="1.0" xmlns="http://www.w3.org/2000/svg"
 width="321.000000pt" height="254.000000pt" viewBox="0 0 321.000000 254.000000"
 preserveAspectRatio="xMidYMid meet">

<g transform="translate(0.000000,254.000000) scale(0.100000,-0.100000)"
fill="#DF4036" stroke="none">
<path d="M332 2530 c-161 -33 -292 -168 -322 -332 -7 -35 -9 -387 -8 -984 l3
-929 33 -60 c47 -87 109 -150 178 -182 l59 -28 1354 -3 1354 -2 46 22 c65 32
119 84 150 147 l28 56 -3 876 c-4 949 -2 907 -59 1004 -43 74 -133 144 -230
178 -20 8 -259 13 -695 17 l-665 5 -140 58 c-77 32 -196 82 -265 110 l-125 52
-325 2 c-179 1 -344 -2 -368 -7z m2643 -502 c37 -17 80 -44 95 -60 16 -15 33
-28 39 -28 6 0 22 -25 36 -55 l25 -56 0 -802 0 -803 -29 -45 c-29 -46 -62 -77
-120 -118 l-33 -23 -1352 4 -1351 5 -55 25 c-67 30 -128 96 -171 187 l-31 64
6 760 6 759 24 43 c30 51 96 107 174 146 l57 29 1307 0 1307 0 66 -32z"/>
</g>
</svg>
