<svg width="32" height="32" viewBox="0 0 32 32" fill="none" xmlns="http://www.w3.org/2000/svg">
<path d="M23.1668 15.523C25.5776 15.523 27.5335 13.567 27.5335 11.1563C27.5335 8.74547 25.5776 6.78955 23.1668 6.78955C20.756 6.78955 18.8001 8.74547 18.8001 11.1563C18.8001 13.567 20.756 15.523 23.1668 15.523ZM23.1668 8.9729C24.3722 8.9729 25.3502 9.95086 25.3502 11.1563C25.3502 12.3616 24.3722 13.3396 23.1668 13.3396C21.9614 13.3396 20.9835 12.3616 20.9835 11.1563C20.9835 9.95086 21.9614 8.9729 23.1668 8.9729ZM13.7102 16.4327C13.1689 16.4327 12.6231 16.51 12.0954 16.6738C11.4495 16.8694 10.7718 16.9785 10.0622 16.9785C9.35258 16.9785 8.67483 16.8694 8.02892 16.6738C7.50128 16.5146 6.95544 16.4327 6.41415 16.4327C4.76299 16.4327 3.15732 17.1696 2.21575 18.566C1.66082 19.403 1.33331 20.4082 1.33331 21.4908V23.5286C1.33331 24.734 2.31127 25.7119 3.51666 25.7119H16.6168C17.8222 25.7119 18.8001 24.734 18.8001 23.5286V21.4908C18.8001 20.4082 18.4726 19.403 17.9086 18.566C16.967 17.1696 15.3613 16.4327 13.7102 16.4327ZM16.6168 23.5286H3.51666V21.4908C3.51666 20.1762 4.35362 19.0527 5.52262 18.6206C5.99113 18.4477 6.50513 18.4523 6.97364 18.6206C7.97889 18.9799 9.02053 19.1619 10.0667 19.1619C11.1129 19.1619 12.15 18.9799 13.1644 18.6206C13.6329 18.4523 14.1469 18.4477 14.6154 18.6206C15.7844 19.0482 16.6213 20.1762 16.6213 21.4908V23.5286H16.6168ZM10.0667 15.523C12.8823 15.523 15.1612 13.2441 15.1612 10.4285C15.1612 7.61286 12.8823 5.33398 10.0667 5.33398C7.25111 5.33398 4.97223 7.61286 4.97223 10.4285C4.97223 13.2441 7.25111 15.523 10.0667 15.523ZM10.0667 7.51734C11.6724 7.51734 12.9779 8.8228 12.9779 10.4285C12.9779 12.0341 11.6724 13.3396 10.0667 13.3396C8.46105 13.3396 7.15558 12.0341 7.15558 10.4285C7.15558 8.8228 8.46105 7.51734 10.0667 7.51734ZM29.7032 18.3022C28.9163 17.1377 27.579 16.5237 26.2053 16.5237C24.9408 16.5237 24.6224 16.9785 23.1668 16.9785C21.7113 16.9785 21.3929 16.5237 20.1283 16.5237C19.5234 16.5237 18.9366 16.6601 18.3907 16.8921C18.6546 17.1605 18.9047 17.4379 19.1185 17.7518C19.3323 18.0702 19.5097 18.4068 19.6644 18.7525C19.8145 18.7207 19.9691 18.7025 20.1283 18.7025C20.9107 18.7025 21.4747 19.1573 23.1668 19.1573C24.868 19.1573 25.4184 18.7025 26.2053 18.7025C26.9195 18.7025 27.5472 19.0072 27.8929 19.5167C28.134 19.876 28.2613 20.2945 28.2613 20.7312V22.073H20.2557V23.5286C20.2557 23.7788 20.2284 24.0198 20.1829 24.2564H28.6252C29.6305 24.2564 30.4447 23.4422 30.4447 22.4369V20.7403C30.4447 19.8351 30.1718 18.9981 29.7032 18.3022Z" fill="#ACACAC"/>
</svg>
