<svg width="32" height="32" viewBox="0 0 32 32" fill="#7E7E7E" xmlns="http://www.w3.org/2000/svg">
<path d="M25.4773 5.3335H6.22179C4.99471 5.3335 4 6.32821 4 7.55529V23.8484C4 25.0755 4.99471 26.0702 6.22179 26.0702H25.4773C26.7044 26.0702 27.6991 25.0755 27.6991 23.8484V7.55529C27.6991 6.32821 26.7044 5.3335 25.4773 5.3335ZM25.1996 23.8484H6.49951C6.42586 23.8484 6.35522 23.8192 6.30313 23.7671C6.25105 23.715 6.22179 23.6444 6.22179 23.5707V7.83301C6.22179 7.75935 6.25105 7.68871 6.30313 7.63663C6.35522 7.58455 6.42586 7.55529 6.49951 7.55529H25.1996C25.2732 7.55529 25.3439 7.58455 25.396 7.63663C25.4481 7.68871 25.4773 7.75935 25.4773 7.83301V23.5707C25.4773 23.6444 25.4481 23.715 25.396 23.7671C25.3439 23.8192 25.2732 23.8484 25.1996 23.8484ZM23.2555 19.59V20.7009C23.2555 21.0076 23.0068 21.2563 22.7001 21.2563H13.4426C13.1359 21.2563 12.8872 21.0076 12.8872 20.7009V19.59C12.8872 19.2832 13.1359 19.0345 13.4426 19.0345H22.7001C23.0068 19.0345 23.2555 19.2832 23.2555 19.59ZM23.2555 15.1464V16.2573C23.2555 16.564 23.0068 16.8128 22.7001 16.8128H13.4426C13.1359 16.8128 12.8872 16.564 12.8872 16.2573V15.1464C12.8872 14.8397 13.1359 14.591 13.4426 14.591H22.7001C23.0068 14.591 23.2555 14.8397 23.2555 15.1464ZM23.2555 10.7028V11.8137C23.2555 12.1205 23.0068 12.3692 22.7001 12.3692H13.4426C13.1359 12.3692 12.8872 12.1205 12.8872 11.8137V10.7028C12.8872 10.3961 13.1359 10.1474 13.4426 10.1474H22.7001C23.0068 10.1474 23.2555 10.3961 23.2555 10.7028ZM11.5911 11.2583C11.5911 12.1786 10.8451 12.9246 9.92478 12.9246C9.00449 12.9246 8.25843 12.1786 8.25843 11.2583C8.25843 10.338 9.00449 9.59193 9.92478 9.59193C10.8451 9.59193 11.5911 10.338 11.5911 11.2583ZM11.5911 15.7019C11.5911 16.6221 10.8451 17.3682 9.92478 17.3682C9.00449 17.3682 8.25843 16.6221 8.25843 15.7019C8.25843 14.7816 9.00449 14.0355 9.92478 14.0355C10.8451 14.0355 11.5911 14.7816 11.5911 15.7019ZM11.5911 20.1454C11.5911 21.0657 10.8451 21.8118 9.92478 21.8118C9.00449 21.8118 8.25843 21.0657 8.25843 20.1454C8.25843 19.2252 9.00449 18.4791 9.92478 18.4791C10.8451 18.4791 11.5911 19.2252 11.5911 20.1454Z" />
</svg>
