<svg width="30" height="27" viewBox="0 0 30 27" fill="#7E7E7E" xmlns="http://www.w3.org/2000/svg">
<path d="M29.2961 14.9258L26.5806 8.15201C26.3383 7.53117 25.7427 7.12736 25.0764 7.12736H22.9463V2.28172C22.9463 1.3883 22.2245 0.666504 21.3311 0.666504H8.4094C7.51599 0.666504 6.79419 1.3883 6.79419 2.28172V7.12736H4.66412C3.99785 7.12736 3.40224 7.53621 3.15995 8.15201L0.444374 14.9208C0.373709 15.1075 0.333328 15.3044 0.333328 15.5063L0.343423 24.8897C0.338376 25.7831 1.06522 26.515 1.95864 26.515H27.7819C28.6753 26.515 29.4021 25.7881 29.3971 24.8897L29.4072 15.5063C29.4072 15.3044 29.3668 15.1075 29.2961 14.9258ZM9.21701 3.08933H20.5235V10.3578H9.21701V3.08933ZM5.2143 9.55018H6.79419V12.7806H22.9463V9.55018H24.5262L26.5806 14.7996H3.15491L5.2143 9.55018ZM2.77129 24.0871L2.80663 17.2225H26.9339L26.9743 24.0871H2.77129Z" />
</svg>
