<svg width="26" height="26" viewBox="0 0 26 26"   fill="#7E7E7E" xmlns="http://www.w3.org/2000/svg">
<path d="M15.3975 4.58014L16.2339 7.08877L11.6613 11.6613C11.1879 12.1348 11.1879 12.901 11.6613 13.3745C12.1343 13.8474 12.901 13.8479 13.3745 13.3745L17.9471 8.80191L20.4557 9.63829C20.8287 9.76246 21.2396 9.66554 21.5177 9.38793L24.7315 6.17416C25.2766 5.62902 25.0575 4.70027 24.3256 4.45597L21.5162 3.51965L20.5798 0.710694C20.3361 -0.0211995 19.4073 -0.240263 18.8617 0.304872L15.6484 3.51814C15.5122 3.65447 15.4166 3.826 15.3723 4.01355C15.328 4.2011 15.3367 4.39727 15.3975 4.58014ZM12.5179 7.26846C12.9046 7.26846 13.2791 7.31692 13.642 7.39667L14.386 6.65266L13.8651 5.09045C13.853 5.0536 13.855 5.01625 13.8444 4.9789C13.4118 4.90318 12.9722 4.84514 12.5174 4.84514C8.27646 4.84514 4.84514 8.27747 4.84514 12.5174C4.84514 16.7584 8.27747 20.1897 12.5174 20.1897C16.7584 20.1897 20.1897 16.7573 20.1897 12.5174C20.1897 12.0616 20.1316 11.6215 20.0559 11.1879C20.0196 11.1773 19.9807 11.1818 19.9449 11.1697L18.3832 10.6493L17.6392 11.3933C17.7189 11.7562 17.7669 12.1308 17.7669 12.5174C17.7669 15.4122 15.4122 17.7669 12.5174 17.7669C9.62264 17.7669 7.26796 15.4122 7.26796 12.5174C7.26796 9.62264 9.62314 7.26846 12.5179 7.26846ZM24.4518 8.7373L22.6599 10.5292C22.5923 10.5968 22.5151 10.6493 22.4419 10.7084C22.5489 11.2964 22.613 11.8991 22.613 12.5174C22.613 18.0838 18.0843 22.6125 12.5179 22.6125C6.95148 22.6125 2.42282 18.0838 2.42282 12.5174C2.42282 6.95097 6.95148 2.42232 12.5179 2.42232C13.1408 2.42232 13.748 2.48693 14.3401 2.59545C14.3986 2.52377 14.44 2.442 14.5066 2.37537L16.2985 0.583496C15.0756 0.196576 13.8006 -0.000217199 12.5179 1.79892e-07C5.60429 1.79892e-07 0 5.60429 0 12.5179C0 19.4315 5.60429 25.0358 12.5179 25.0358C19.4315 25.0358 25.0358 19.4315 25.0358 12.5179C25.0358 11.2 24.8294 9.93054 24.4518 8.7373Z"/>
</svg>
