<svg width="17" height="23" viewBox="0 0 17 23" fill="#7E7E7E" xmlns="http://www.w3.org/2000/svg">
<path d="M16.6991 6.59565C16.6991 4.67352 15.1422 3.11668 13.2201 3.11668C11.298 3.11668 9.74113 4.67352 9.74113 6.59565C9.74113 8.17858 10.7979 9.51364 12.2416 9.93546C12.2155 10.6356 12.059 11.1748 11.7633 11.5401C11.0936 12.3751 9.61936 12.5143 8.05817 12.6578C6.83184 12.7708 5.56201 12.8926 4.52267 13.3927V7.13054C5.936 6.68697 6.95795 5.36931 6.95795 3.81247C6.95795 1.89034 5.40111 0.333496 3.47897 0.333496C1.55684 0.333496 0 1.89034 0 3.81247C0 5.36931 1.02195 6.68697 2.43528 7.13054V15.7975C1.02195 16.2455 0 17.5631 0 19.12C0 21.0421 1.55684 22.5989 3.47897 22.5989C5.40111 22.5989 6.95795 21.0421 6.95795 19.12C6.95795 17.6414 6.03602 16.3759 4.7314 15.8758C4.86622 15.6497 5.0706 15.4496 5.37936 15.2931C6.08386 14.9365 7.13625 14.8408 8.25387 14.7364C10.089 14.5668 12.1677 14.3712 13.3941 12.8448C14.0029 12.0881 14.3116 11.114 14.3334 9.89198C15.7076 9.42666 16.6991 8.1264 16.6991 6.59565ZM3.47897 2.42088C4.24435 2.42088 4.87056 3.0471 4.87056 3.81247C4.87056 4.57784 4.24435 5.20406 3.47897 5.20406C2.7136 5.20406 2.08738 4.57784 2.08738 3.81247C2.08738 3.0471 2.7136 2.42088 3.47897 2.42088ZM3.47897 20.5115C2.7136 20.5115 2.08738 19.8853 2.08738 19.12C2.08738 18.3546 2.7136 17.7284 3.47897 17.7284C4.24435 17.7284 4.87056 18.3546 4.87056 19.12C4.87056 19.8853 4.24435 20.5115 3.47897 20.5115ZM13.2201 7.98724C12.4547 7.98724 11.8285 7.36102 11.8285 6.59565C11.8285 5.83027 12.4547 5.20406 13.2201 5.20406C13.9855 5.20406 14.6117 5.83027 14.6117 6.59565C14.6117 7.36102 13.9855 7.98724 13.2201 7.98724Z" />
</svg>
